<svg width="190" height="40" viewBox="0 0 190 40" fill="none" xmlns="http://www.w3.org/2000/svg">
<path fill-rule="evenodd" clip-rule="evenodd" d="M10.1801 17.3341C12.0708 17.3341 13.5837 16.8041 14.7186 15.7441C15.8741 14.6841 16.4521 13.2188 16.4521 11.3482C16.4521 9.47762 15.8741 8.01233 14.7186 6.95234C13.5837 5.89234 12.0708 5.36235 10.1801 5.36235H6.24035V17.3341H10.1801ZM0 0.436615H10.4324C12.8488 0.436615 14.992 0.883378 16.862 1.7772C18.7319 2.67102 20.1817 3.93866 21.2114 5.58071C22.2411 7.22276 22.7558 9.14511 22.7558 11.3483C22.7558 13.5516 22.2411 15.4739 21.2114 17.116C20.1817 18.758 18.7319 20.0256 16.862 20.9195C14.992 21.8133 12.8488 22.2603 10.4324 22.2603H0V0.436615Z" fill="#F2F2F2"/>
<path fill-rule="evenodd" clip-rule="evenodd" d="M27.2995 22.26H33.5397V0.436615H27.2995V22.26Z" fill="#F2F2F2"/>
<path fill-rule="evenodd" clip-rule="evenodd" d="M54.6168 13.2335H59.538V22.2599C58.0043 22.2599 55.6488 22.2464 54.0221 22.2599C52.2063 22.2749 51.9122 22.2599 50.2736 22.2599C47.9621 22.2599 45.8801 22.2184 44.031 21.2623C42.1821 20.2855 40.7323 18.9343 39.6818 17.2093C38.6311 15.4843 38.106 13.5305 38.106 11.3482C38.106 9.16584 38.6311 7.21203 39.6818 5.48703C40.7323 3.76204 42.1929 2.42146 44.0628 1.46529C45.9328 0.488527 48.0444 0 50.3979 0C52.4566 0 54.3058 0.34294 55.945 1.02882C57.5839 1.7147 58.9493 2.70205 60.042 3.99057L56.071 7.54467C54.579 5.9235 52.7929 5.11292 50.7127 5.11292C48.822 5.11292 47.2987 5.68439 46.1427 6.82762C44.9869 7.94996 44.4095 9.45672 44.4095 11.3482C44.4095 12.5538 44.672 13.6343 45.1971 14.5905C45.7228 15.5258 46.4581 16.2638 47.4034 16.804C48.3492 17.3237 49.4312 17.5834 50.6497 17.5834H54.6168V13.2335Z" fill="#F2F2F2"/>
<path fill-rule="evenodd" clip-rule="evenodd" d="M64.755 22.26H70.9955V0.436615H64.755V22.26Z" fill="#F2F2F2"/>
<path fill-rule="evenodd" clip-rule="evenodd" d="M96.6152 22.26L96.5522 10.6933L90.879 20.1089H88.1057L82.4638 11.0051V22.26H76.6963V0.436615H81.8334L89.5868 13.0319L97.1513 0.436615H102.288L102.352 22.26H96.6152Z" fill="#F2F2F2"/>
<path fill-rule="evenodd" clip-rule="evenodd" d="M120.982 13.4684L118.145 6.48488L115.309 13.4684H120.982ZM122.81 18.0201H113.48L111.747 22.2603H105.38L115.119 0.436615H121.265L131.036 22.2603H124.543L122.81 18.0201Z" fill="#F2F2F2"/>
<path fill-rule="evenodd" clip-rule="evenodd" d="M137.654 5.3313H130.878V0.436615H150.639V5.3313H143.894V22.2603H137.654V5.3313Z" fill="#F2F2F2"/>
<path fill-rule="evenodd" clip-rule="evenodd" d="M155.414 22.26H161.654V0.436615H155.414V22.26Z" fill="#F2F2F2"/>
<path fill-rule="evenodd" clip-rule="evenodd" d="M181.881 22.26L177.311 15.4948L172.804 22.26H165.681L173.718 11.2236L166.027 0.436615H173.056L177.468 6.73394L181.818 0.436615H188.563L180.872 10.9739L189.067 22.26H181.881Z" fill="#F2F2F2"/>
<path fill-rule="evenodd" clip-rule="evenodd" d="M123.91 36.3175L123.277 34.5714L123.027 33.789H123.002L122.769 34.5552L122.119 36.3175H123.91ZM124.176 37.0342H121.862L121.337 38.4586H120.422L122.494 33.0236H123.56L125.633 38.4586H124.693L124.176 37.0342Z" fill="#F2F2F2"/>
<path fill-rule="evenodd" clip-rule="evenodd" d="M138.152 35.6505V38.4587H137.495L137.47 37.7669C137.309 38.014 137.087 38.206 136.804 38.3434C136.521 38.4752 136.182 38.541 135.788 38.541C135.278 38.541 134.831 38.4284 134.448 38.2037C134.065 37.9784 133.768 37.6572 133.557 37.2399C133.346 36.8172 133.24 36.3178 133.24 35.7414C133.24 35.1702 133.349 34.6761 133.565 34.259C133.782 33.8361 134.087 33.512 134.481 33.287C134.875 33.0567 135.333 32.9411 135.855 32.9411C136.421 32.9411 136.887 33.0458 137.254 33.2543C137.62 33.4628 137.909 33.7867 138.119 34.2258L137.304 34.6131C137.198 34.3164 137.02 34.0914 136.771 33.9375C136.521 33.7837 136.221 33.7072 135.871 33.7072C135.35 33.7072 134.937 33.8855 134.631 34.2422C134.325 34.599 134.173 35.0987 134.173 35.7414C134.173 36.3943 134.317 36.8996 134.606 37.2563C134.9 37.6078 135.328 37.7834 135.888 37.7834C136.327 37.7834 136.682 37.6766 136.954 37.4622C137.226 37.2484 137.362 36.9378 137.362 36.5316V36.3752H135.68V35.6505H138.152Z" fill="#F2F2F2"/>
<path fill-rule="evenodd" clip-rule="evenodd" d="M150.806 37.7012V38.4586H146.71V33.0236H150.689V33.7813H147.6V35.3457H150.015V36.0871H147.6V37.7012H150.806Z" fill="#F2F2F2"/>
<path fill-rule="evenodd" clip-rule="evenodd" d="M163.642 38.4586H162.584L160.462 35.033L159.929 34.0283H159.92L159.954 34.9504V38.4586H159.138V33.0236H160.187L162.301 36.4413L162.843 37.4539H162.851L162.818 36.5315V33.0236H163.642V38.4586Z" fill="#F2F2F2"/>
<path fill-rule="evenodd" clip-rule="evenodd" d="M176.958 37.0179C176.792 37.5064 176.506 37.8823 176.101 38.1461C175.701 38.4093 175.23 38.5414 174.686 38.5414C174.158 38.5414 173.701 38.4287 173.312 38.2037C172.924 37.9787 172.624 37.6546 172.413 37.232C172.202 36.8093 172.096 36.3123 172.096 35.7414C172.096 35.1705 172.202 34.6732 172.413 34.2508C172.624 33.8282 172.924 33.5041 173.312 33.2791C173.701 33.0538 174.155 32.9414 174.677 32.9414C175.227 32.9414 175.688 33.0538 176.06 33.2791C176.437 33.5041 176.709 33.8364 176.875 34.2755L176.035 34.6461C175.923 34.3223 175.763 34.0861 175.552 33.9376C175.341 33.784 175.066 33.7073 174.727 33.7073C174.211 33.7073 173.797 33.8882 173.487 34.2508C173.182 34.6076 173.029 35.1046 173.029 35.7414C173.029 36.3837 173.176 36.8834 173.47 37.2402C173.764 37.597 174.172 37.7755 174.694 37.7755C175.049 37.7755 175.346 37.6873 175.585 37.512C175.829 37.3364 176.004 37.0782 176.11 36.7379L176.958 37.0179Z" fill="#F2F2F2"/>
<path fill-rule="evenodd" clip-rule="evenodd" d="M187.265 36.3754V38.4589H186.375V36.3754L184.418 33.0236H185.409L186.391 34.7695L186.824 35.5848L187.257 34.7695L188.231 33.0236H189.23L187.265 36.3754Z" fill="#F2F2F2"/>
<path fill-rule="evenodd" clip-rule="evenodd" d="M35.2417 37.7093C35.8185 37.7093 36.263 37.539 36.5734 37.199C36.8842 36.8528 37.04 36.3673 37.04 35.7414C37.04 35.1155 36.8842 34.632 36.5734 34.2917C36.263 33.9458 35.8185 33.7729 35.2417 33.7729H34.1927V37.7093H35.2417ZM35.2417 33.0257C36.1072 33.0257 36.7792 33.2619 37.2561 33.7343C37.7337 34.206 37.9724 34.876 37.9724 35.7437C37.9724 36.6107 37.7337 37.2807 37.2561 37.7531C36.7792 38.2248 36.1072 38.461 35.2417 38.461H33.3018V33.0257H35.2417Z" fill="#F2F2F2"/>
<path fill-rule="evenodd" clip-rule="evenodd" d="M46.4299 38.4586H47.3207V33.0236H46.4299V38.4586Z" fill="#F2F2F2"/>
<path fill-rule="evenodd" clip-rule="evenodd" d="M60.6905 35.6505V38.4587H60.0328L60.0078 37.7669C59.847 38.014 59.6249 38.206 59.3418 38.3434C59.0587 38.4752 58.7201 38.541 58.3261 38.541C57.8156 38.541 57.3687 38.4284 56.9857 38.2037C56.6027 37.9784 56.3057 37.6572 56.0949 37.2399C55.8841 36.8172 55.7782 36.3178 55.7782 35.7414C55.7782 35.1702 55.8867 34.6761 56.1029 34.259C56.3197 33.8361 56.625 33.512 57.0187 33.287C57.413 33.0567 57.8709 32.9411 58.3924 32.9411C58.9588 32.9411 59.425 33.0458 59.7914 33.2543C60.1577 33.4628 60.4464 33.7867 60.6572 34.2258L59.8413 34.6131C59.7358 34.3164 59.558 34.0914 59.3085 33.9375C59.0587 33.7837 58.759 33.7072 58.4093 33.7072C57.8872 33.7072 57.4742 33.8855 57.1686 34.2422C56.8635 34.599 56.7107 35.0987 56.7107 35.7414C56.7107 36.3943 56.8552 36.8996 57.1436 37.2563C57.4379 37.6078 57.8655 37.7834 58.426 37.7834C58.8643 37.7834 59.2196 37.6766 59.4917 37.4622C59.7637 37.2484 59.8996 36.9378 59.8996 36.5316V36.3752H58.2179V35.6505H60.6905Z" fill="#F2F2F2"/>
<path fill-rule="evenodd" clip-rule="evenodd" d="M69.2471 38.4586H70.1379V33.0236H69.2471V38.4586Z" fill="#F2F2F2"/>
<path fill-rule="evenodd" clip-rule="evenodd" d="M82.9912 33.7813H81.1096V38.4586H80.2188V33.7813H78.3372V33.0236H82.9912V33.7813Z" fill="#F2F2F2"/>
<path fill-rule="evenodd" clip-rule="evenodd" d="M93.2854 36.3175L92.6524 34.5714L92.4026 33.789H92.3776L92.1445 34.5552L91.4951 36.3175H93.2854ZM93.5517 37.0342H91.2369L90.7124 38.4586H89.7966L91.8694 33.0236H92.935L95.0084 38.4586H94.0676L93.5517 37.0342Z" fill="#F2F2F2"/>
<path fill-rule="evenodd" clip-rule="evenodd" d="M107.04 37.7012V38.4586H103.119V33.0236H104.01V37.7012H107.04Z" fill="#F2F2F2"/>
<path fill-rule="evenodd" clip-rule="evenodd" d="M0 31.1765H3.75864L7.73076 35.6462L3.75864 40H0L3.6843 35.6386L0 31.1765Z" fill="#5101A6"/>
<path fill-rule="evenodd" clip-rule="evenodd" d="M7.4334 31.1761H11.192L15.1642 35.6458L11.192 39.9996H7.4334L11.1177 35.6382L7.4334 31.1761Z" fill="#5101A6"/>
<path fill-rule="evenodd" clip-rule="evenodd" d="M15.1641 31.1761H18.9227L22.8949 35.6458L18.9227 39.9996H15.1641L18.8484 35.6382L15.1641 31.1761Z" fill="#5101A6"/>
</svg>
